<svg xmlns="http://www.w3.org/2000/svg" width="117" height="117.2" viewBox="0 0 117 117.2">
  <g id="be" transform="translate(-2591 -1439)">
    <path id="be-2" data-name="be" d="M33.631,4.5a43.225,43.225,0,0,1,9.307.911,20.934,20.934,0,0,1,7.2,2.957A13.626,13.626,0,0,1,54.789,13.8a19.371,19.371,0,0,1,1.648,8.386A15.775,15.775,0,0,1,53.98,31.2,17.756,17.756,0,0,1,46.7,37.116a17.082,17.082,0,0,1,9.8,6.641A19.9,19.9,0,0,1,59.724,55.2a20.038,20.038,0,0,1-1.987,9.355A17.937,17.937,0,0,1,52.113,71.1a24.672,24.672,0,0,1-8.1,3.718,35.461,35.461,0,0,1-9.258,1.231H0V4.537H33.631V4.5ZM82.113,63.456c2.133,2.075,5.2,3.117,9.181,3.117a12.659,12.659,0,0,0,7.416-2.167,8.923,8.923,0,0,0,3.781-4.556h12.545c-1.953,6.2-5.08,10.664-9.21,13.33A26.591,26.591,0,0,1,90.9,77.2a29.709,29.709,0,0,1-11.013-1.939,23.983,23.983,0,0,1-8.337-5.526,24.724,24.724,0,0,1-5.221-8.58,31.8,31.8,0,0,1-1.808-11,29.48,29.48,0,0,1,1.953-10.81A25.16,25.16,0,0,1,80.315,24.881a25.974,25.974,0,0,1,10.761-2.1,24.435,24.435,0,0,1,11.537,2.535,23.268,23.268,0,0,1,8.047,6.786,26.994,26.994,0,0,1,4.556,9.792,39.113,39.113,0,0,1,1.018,11.537H78.958c0,4.072,1.357,7.911,3.442,10.01l-.388.145ZM32.477,63.7a20.409,20.409,0,0,0,4.392-.451,11.241,11.241,0,0,0,3.7-1.454,7.183,7.183,0,0,0,2.521-2.826,9.937,9.937,0,0,0,.921-4.653c0-3.635-1.066-6.253-3.1-7.853a13.349,13.349,0,0,0-8.192-2.327H15.705V63.766H32.477V63.7ZM98.434,36.311c-1.706-1.866-4.556-2.87-8.032-2.87A12.02,12.02,0,0,0,84.75,34.6a10.444,10.444,0,0,0-3.587,2.86,10.091,10.091,0,0,0-1.9,3.635,16.994,16.994,0,0,0-.654,3.442h23.083a13.847,13.847,0,0,0-3.3-8.192v.048ZM31.6,33.33a11.288,11.288,0,0,0,6.907-2c1.813-1.309,2.685-3.49,2.685-6.486a9.134,9.134,0,0,0-.873-4.1A7.085,7.085,0,0,0,37.9,18.265a10.263,10.263,0,0,0-3.49-1.246,21.454,21.454,0,0,0-4.072-.359H15.657V33.335H31.6ZM75.705,9.3h28.929v7.048H75.705V9.287Z" transform="translate(2591.4 1478.997)" fill="#f2ad19"/>
    <rect id="Retângulo_22" data-name="Retângulo 22" width="117" height="117" transform="translate(2591 1439)" fill="none"/>
  </g>
</svg>
