<svg xmlns="http://www.w3.org/2000/svg" width="40.554" height="25.353" viewBox="0 0 40.554 25.353">
  <path id="behance" d="M11.728,4.5a15.074,15.074,0,0,1,3.246.318,7.3,7.3,0,0,1,2.51,1.031,4.752,4.752,0,0,1,1.623,1.893,6.755,6.755,0,0,1,.575,2.924,5.5,5.5,0,0,1-.857,3.144,6.192,6.192,0,0,1-2.539,2.062A5.957,5.957,0,0,1,19.7,18.192a6.938,6.938,0,0,1,1.124,3.989,6.988,6.988,0,0,1-.693,3.263,6.255,6.255,0,0,1-1.961,2.282,8.6,8.6,0,0,1-2.823,1.3,12.366,12.366,0,0,1-3.229.429H0V4.515H11.728V4.5ZM28.636,25.062a4.411,4.411,0,0,0,3.2,1.087,4.415,4.415,0,0,0,2.586-.756A3.112,3.112,0,0,0,35.742,23.8h4.375a8.229,8.229,0,0,1-3.212,4.649,9.273,9.273,0,0,1-5.206,1.4,10.361,10.361,0,0,1-3.841-.676,8.364,8.364,0,0,1-2.908-1.927,8.622,8.622,0,0,1-1.821-2.992,11.091,11.091,0,0,1-.631-3.837,10.281,10.281,0,0,1,.681-3.77,8.774,8.774,0,0,1,4.828-5.044,9.058,9.058,0,0,1,3.753-.732,8.521,8.521,0,0,1,4.023.884,8.114,8.114,0,0,1,2.806,2.367,9.414,9.414,0,0,1,1.589,3.415,13.64,13.64,0,0,1,.355,4.023h-13a5.123,5.123,0,0,0,1.2,3.491l-.135.051Zm-17.31.085a7.117,7.117,0,0,0,1.532-.157,3.92,3.92,0,0,0,1.29-.507,2.505,2.505,0,0,0,.879-.986,3.465,3.465,0,0,0,.321-1.623,3.281,3.281,0,0,0-1.082-2.738,4.655,4.655,0,0,0-2.857-.811H5.477V25.17h5.849v-.051Zm23-9.551a3.721,3.721,0,0,0-2.8-1,4.192,4.192,0,0,0-1.971.4,3.642,3.642,0,0,0-1.251,1,3.519,3.519,0,0,0-.663,1.268,5.926,5.926,0,0,0-.228,1.2h8.05a4.829,4.829,0,0,0-1.149-2.857v.017Zm-23.306-1.04a3.937,3.937,0,0,0,2.409-.7,2.6,2.6,0,0,0,.936-2.262,3.185,3.185,0,0,0-.3-1.43,2.471,2.471,0,0,0-.845-.865A3.579,3.579,0,0,0,12,8.868a7.482,7.482,0,0,0-1.42-.125H5.46v5.815h5.561ZM26.4,6.175H36.489V8.633H26.4V6.171Z" transform="translate(0 -4.503)" fill="#fff"/>
</svg>
