<svg id="contactcircle" xmlns="http://www.w3.org/2000/svg" width="459" height="512" viewBox="0 0 459 512">
  <g id="Elipse_2" data-name="Elipse 2" transform="translate(0 33)" fill="none" stroke="#f2ad19" stroke-width="5">
    <circle cx="229.5" cy="229.5" r="229.5" stroke="none"/>
    <circle cx="229.5" cy="229.5" r="227" fill="none"/>
  </g>
  <g id="Elipse_8" data-name="Elipse 8" transform="translate(143)" fill="none" stroke="#f2ad19" stroke-width="5">
    <circle cx="158" cy="158" r="158" stroke="none"/>
    <circle cx="158" cy="158" r="155.5" fill="none"/>
  </g>
  <g id="Caminho_23" data-name="Caminho 23" transform="translate(162 363)" fill="none">
    <path d="M24,0A24,24,0,1,1,0,24,24,24,0,0,1,24,0Z" stroke="none"/>
    <path d="M 24 5 C 18.92491149902344 5 14.15359878540039 6.976345062255859 10.56496810913086 10.56496810913086 C 6.976345062255859 14.15359878540039 5 18.92491149902344 5 24 C 5 29.07508850097656 6.976345062255859 33.84640121459961 10.56496810913086 37.43503570556641 C 14.15359878540039 41.02365493774414 18.92491149902344 43 24 43 C 27.40503311157227 43 30.73410034179688 42.09566497802734 33.62731170654297 40.3847541809082 C 36.43610000610352 38.72378921508789 38.78727722167969 36.36111068725586 40.42665481567383 33.55214309692383 C 42.11015701293945 30.66757774353027 43 27.36450004577637 43 24 C 43 18.92491149902344 41.02365493774414 14.15359878540039 37.43503570556641 10.56496810913086 C 33.84640121459961 6.976345062255859 29.07508850097656 5 24 5 M 24 0 C 37.25483322143555 0 48 10.74516677856445 48 24 C 48 32.80114364624023 43.26256561279297 40.49580001831055 36.17235565185547 44.68856811523438 C 32.62403106689453 46.7868766784668 28.45368957519531 48 24 48 C 10.74516677856445 48 0 37.25483322143555 0 24 C 0 10.74516677856445 10.74516677856445 0 24 0 Z" stroke="none" fill="#f2ad19"/>
  </g>
  <g id="Elipse_9" data-name="Elipse 9" transform="translate(37 387)" fill="none" stroke="#f2ad19" stroke-width="5">
    <circle cx="62.5" cy="62.5" r="62.5" stroke="none"/>
    <circle cx="62.5" cy="62.5" r="60" fill="none"/>
  </g>
</svg>
