<svg xmlns="http://www.w3.org/2000/svg" width="101.929" height="99.405" viewBox="0 0 101.929 99.405">
  <path id="github" d="M50.965.3A50.967,50.967,0,0,0,34.847,99.614c2.548.48,3.483-1.1,3.483-2.451,0-1.21-.042-4.417-.064-8.664C24.089,91.575,21.1,81.662,21.1,81.662c-2.319-5.882-5.67-7.454-5.67-7.454-4.617-3.16.357-3.1.357-3.1,5.118.357,7.806,5.249,7.806,5.249,4.544,7.793,11.93,5.542,14.843,4.239a10.865,10.865,0,0,1,3.228-6.817C30.345,72.51,18.449,68.127,18.449,48.6a19.662,19.662,0,0,1,5.245-13.676c-.573-1.287-2.293-6.468.446-13.489,0,0,4.268-1.368,14.015,5.224a48.05,48.05,0,0,1,25.482,0c9.683-6.591,13.952-5.224,13.952-5.224,2.739,7.02,1.019,12.2.51,13.489A19.742,19.742,0,0,1,83.323,48.6c0,19.579-11.913,23.89-23.253,25.143,1.784,1.529,3.44,4.655,3.44,9.428,0,6.821-.064,12.3-.064,13.956,0,1.338.892,2.93,3.5,2.421A50.9,50.9,0,0,0,50.965.3" transform="translate(0 -0.297)" fill="#f2ad19"/>
</svg>
