<svg xmlns="http://www.w3.org/2000/svg" width="40.57" height="40.57" viewBox="0 0 40.57 40.57">
  <path id="instagram" d="M20.285,0c-5.511,0-6.2.025-8.362.122A14.958,14.958,0,0,0,7,1.065,9.934,9.934,0,0,0,3.4,3.4,9.9,9.9,0,0,0,1.065,7a14.914,14.914,0,0,0-.943,4.924C.02,14.086,0,14.774,0,20.285s.025,6.2.122,8.362a14.967,14.967,0,0,0,.943,4.924A9.948,9.948,0,0,0,3.4,37.165,9.92,9.92,0,0,0,7,39.505a14.976,14.976,0,0,0,4.924.943c2.164.1,2.852.122,8.362.122s6.2-.025,8.362-.122a15.011,15.011,0,0,0,4.924-.943,10.367,10.367,0,0,0,5.933-5.933,14.967,14.967,0,0,0,.943-4.924c.1-2.164.122-2.852.122-8.362s-.025-6.2-.122-8.362A15,15,0,0,0,39.505,7,9.956,9.956,0,0,0,37.165,3.4a9.883,9.883,0,0,0-3.594-2.34A14.923,14.923,0,0,0,28.647.122C26.484.02,25.8,0,20.285,0Zm0,3.651c5.414,0,6.06.027,8.2.12a11.176,11.176,0,0,1,3.765.7A6.675,6.675,0,0,1,36.1,8.322a11.2,11.2,0,0,1,.7,3.765c.1,2.14.118,2.782.118,8.2s-.025,6.06-.125,8.2a11.416,11.416,0,0,1-.712,3.765,6.441,6.441,0,0,1-1.52,2.336A6.328,6.328,0,0,1,32.226,36.1a11.282,11.282,0,0,1-3.778.7c-2.154.1-2.787.118-8.214.118s-6.062-.025-8.214-.125a11.5,11.5,0,0,1-3.78-.712,6.282,6.282,0,0,1-2.331-1.52,6.159,6.159,0,0,1-1.521-2.333,11.512,11.512,0,0,1-.71-3.778c-.076-2.13-.1-2.787-.1-8.188s.027-6.062.1-8.217a11.5,11.5,0,0,1,.71-3.776A6.013,6.013,0,0,1,5.91,5.932,6,6,0,0,1,8.241,4.414,11.227,11.227,0,0,1,12,3.7c2.155-.076,2.789-.1,8.214-.1l.076.051Zm0,6.217A10.416,10.416,0,1,0,30.7,20.285,10.416,10.416,0,0,0,20.285,9.869Zm0,17.178a6.762,6.762,0,1,1,6.762-6.762A6.76,6.76,0,0,1,20.285,27.047ZM33.548,9.458a2.434,2.434,0,1,1-2.434-2.433A2.436,2.436,0,0,1,33.548,9.458Z" fill="#fff"/>
</svg>
