<svg xmlns="http://www.w3.org/2000/svg" width="99.616" height="99.617" viewBox="0 0 99.616 99.617">
  <path id="instacontato" d="M49.808,0C36.277,0,34.588.062,29.275.3A36.727,36.727,0,0,0,17.184,2.615,24.391,24.391,0,0,0,8.359,8.359a24.3,24.3,0,0,0-5.745,8.824A36.62,36.62,0,0,0,.3,29.275c-.249,5.313-.3,7-.3,20.533S.062,65.029.3,70.342A36.75,36.75,0,0,0,2.615,82.433a24.426,24.426,0,0,0,5.745,8.824A24.357,24.357,0,0,0,17.184,97a36.773,36.773,0,0,0,12.091,2.316c5.313.249,7,.3,20.533.3s15.221-.062,20.533-.3A36.858,36.858,0,0,0,82.433,97,25.455,25.455,0,0,0,97,82.433a36.75,36.75,0,0,0,2.316-12.091c.249-5.313.3-7,.3-20.533s-.062-15.221-.3-20.533A36.835,36.835,0,0,0,97,17.184a24.446,24.446,0,0,0-5.745-8.824,24.268,24.268,0,0,0-8.824-5.745A36.643,36.643,0,0,0,70.342.3C65.029.05,63.34,0,49.808,0Zm0,8.965c13.295,0,14.88.066,20.131.295a27.442,27.442,0,0,1,9.244,1.723,16.391,16.391,0,0,1,9.455,9.451,27.5,27.5,0,0,1,1.714,9.244c.237,5.255.291,6.832.291,20.131s-.062,14.88-.307,20.131a28.03,28.03,0,0,1-1.747,9.244,15.815,15.815,0,0,1-3.731,5.736,15.539,15.539,0,0,1-5.728,3.719,27.7,27.7,0,0,1-9.277,1.714c-5.288.237-6.844.291-20.168.291s-14.884-.062-20.168-.307a28.243,28.243,0,0,1-9.281-1.747,15.424,15.424,0,0,1-5.724-3.731,15.124,15.124,0,0,1-3.736-5.728,28.267,28.267,0,0,1-1.743-9.277c-.187-5.23-.253-6.844-.253-20.106s.066-14.884.253-20.177A28.235,28.235,0,0,1,10.775,20.3a14.765,14.765,0,0,1,3.736-5.732,14.732,14.732,0,0,1,5.724-3.727A27.568,27.568,0,0,1,29.453,9.09c5.292-.187,6.849-.249,20.168-.249l.187.125Zm0,15.266A25.577,25.577,0,1,0,75.385,49.808,25.575,25.575,0,0,0,49.808,24.232Zm0,42.179a16.6,16.6,0,1,1,16.6-16.6A16.6,16.6,0,0,1,49.808,66.411ZM82.375,23.223A5.977,5.977,0,1,1,76.4,17.25,5.981,5.981,0,0,1,82.375,23.223Z" fill="#f2ad19"/>
</svg>
