<svg xmlns="http://www.w3.org/2000/svg" width="99.775" height="99.774" viewBox="0 0 99.775 99.774">
  <path id="linkedin" d="M85,85.024H70.229V61.873c0-5.521-.112-12.626-7.7-12.626-7.7,0-8.88,6.007-8.88,12.218V85.024H38.875V37.415H53.068V43.9h.191c1.983-3.742,6.805-7.691,14.01-7.691,14.97,0,17.739,9.853,17.739,22.678V85.024ZM22.187,30.9a8.581,8.581,0,1,1,8.581-8.585A8.572,8.572,0,0,1,22.187,30.9ZM29.6,85.024H14.779V37.415H29.6ZM92.4,0H7.363A7.274,7.274,0,0,0,0,7.188v85.4a7.271,7.271,0,0,0,7.363,7.188h85.02a7.3,7.3,0,0,0,7.392-7.188V7.188A7.3,7.3,0,0,0,92.383,0Z" fill="#f2ad19"/>
</svg>
