<svg id="lupiego_logo2" xmlns="http://www.w3.org/2000/svg" width="186.486" height="68.103" viewBox="0 0 186.486 68.103">
  <path id="Caminho_1" data-name="Caminho 1" d="M194.054,149.47a2.99,2.99,0,0,0-2.992,2.992v18.007a13.794,13.794,0,0,1-6.593,1.752c-3.543,0-5.825-2.125-5.825-6.277V152.462a2.982,2.982,0,1,0-5.964,0v14.309c0,3.543.67,6.141,2.539,8.011a9.838,9.838,0,0,0,7.163,2.539,18.459,18.459,0,0,0,8.778-2.244,2.5,2.5,0,0,0,.256.629,2.744,2.744,0,0,0,.964,1.1,2.992,2.992,0,0,0,4.665-2.479V152.462A2.99,2.99,0,0,0,194.054,149.47Z" transform="translate(-149.084 -129.085)" fill="#f2ad19"/>
  <path id="Caminho_2" data-name="Caminho 2" d="M408.028,145.73a14.2,14.2,0,0,0-7.006,1.778s-.3.178-.511.3h0a2.968,2.968,0,0,0-2.638-1.555h-.021a2.871,2.871,0,0,0-1.633.511,2.646,2.646,0,0,0-.453.375,3,3,0,0,0-.867,2.087v31.227a2.982,2.982,0,0,0,5.964,0V172.38a15.3,15.3,0,0,0,7.281,1.713c6.692,0,12.931-4.468,12.931-14.191C421.076,150.237,414.641,145.73,408.028,145.73Zm-1.3,23.224a12.1,12.1,0,0,1-5.9-1.359v-15.33a12.112,12.112,0,0,1,5.806-1.4c4.527,0,8.326,2.854,8.326,9.032S411.354,168.954,406.729,168.954Z" transform="translate(-340.92 -125.856)" fill="#f2ad19"/>
  <path id="Caminho_3" data-name="Caminho 3" d="M621.608,149.48a2.988,2.988,0,0,0-2.988,2.988v21.353a2.988,2.988,0,1,0,5.975,0V152.468A2.988,2.988,0,0,0,621.608,149.48Z" transform="translate(-534.05 -129.093)" fill="#f2ad19"/>
  <path id="Caminho_4" data-name="Caminho 4" d="M909.632,152.492l-6.909-.364c-3.793-.205-4.262-1.038-4.262-2.234a3.306,3.306,0,0,1,1.039-2.188,14.71,14.71,0,0,0,5.2.885c6.7,0,11.587-3.949,11.587-9.56A8.724,8.724,0,0,0,914,133.057c1.015-.73,1.95-1.343,2.986-1.969a2.251,2.251,0,0,0,.659-3.269h0a2.243,2.243,0,0,0-3.211-.41,21.513,21.513,0,0,0-3.391,3.472,14.245,14.245,0,0,0-6.339-1.4c-6.753,0-11.585,3.9-11.585,9.56a8.679,8.679,0,0,0,3.169,6.805,6.517,6.517,0,0,0-2.858,5.092,5.059,5.059,0,0,0,1.455,3.637,7.673,7.673,0,0,0-3.793,6.6c0,3.9,3.325,6.545,13.093,6.545,10.234,0,14.7-3.429,14.7-8.468C918.879,155.455,915.711,152.805,909.632,152.492Zm-4.936-18.65c3.637,0,5.975,1.973,5.975,5.2s-2.338,5.2-5.975,5.2c-3.692,0-5.974-1.973-5.974-5.2s2.286-5.194,5.974-5.194Zm-.518,29.4c-5.456,0-7.482-1.194-7.482-3.22a4.3,4.3,0,0,1,1.663-3.429,12.88,12.88,0,0,0,2.65.41l7.481.468c3.481.208,4.624,1.038,4.624,2.494,0,1.876-1.715,3.279-8.935,3.279Z" transform="translate(-769.265 -109.61)" fill="#f2ad19"/>
  <path id="Caminho_5" data-name="Caminho 5" d="M1109.054,145.68c-7.688,0-13.974,5.559-13.974,14.184s6.29,14.183,13.974,14.183,13.977-5.559,13.977-14.183S1116.744,145.68,1109.054,145.68Zm0,23.224c-4.623,0-7.844-3.325-7.844-9.039s3.221-9.039,7.844-9.039,7.846,3.324,7.846,9.039S1113.678,168.9,1109.054,168.9Z" transform="translate(-945.364 -125.813)" fill="#f2ad19"/>
  <path id="Caminho_6" data-name="Caminho 6" d="M708.011,145.73c-6.809,0-13.461,5.2-13.461,14.169,0,9.093,6.4,14.191,14.288,14.191a24.878,24.878,0,0,0,7.832-1.162,2.428,2.428,0,0,0,1.641-2.282,2.255,2.255,0,0,0-.117-.71,2.4,2.4,0,0,0-2.895-1.555,21.6,21.6,0,0,1-5.51.766c-4.88,0-8.265-2.48-9.053-7.11h17.228a2.633,2.633,0,0,0,2.627-2.61v-.1C720.59,150.926,715.3,145.73,708.011,145.73Zm-7.282,11.887c.684-4.665,3.444-7.007,7.282-7.007s6.337,2.6,6.495,7.007Z" transform="translate(-599.598 -125.856)" fill="#f2ad19"/>
  <circle id="Elipse_1" data-name="Elipse 1" cx="2.988" cy="2.988" r="2.988" transform="translate(160.704 31.064)" fill="#f2ad19"/>
  <path id="Caminho_7" data-name="Caminho 7" d="M97.5,161.4H94.785a5.5,5.5,0,0,1-5.415-3.18,2.354,2.354,0,0,1-.137-.3c-.012-.031-.026-.063-.038-.1a17.06,17.06,0,0,1-.458-3.681V129.962a2.991,2.991,0,1,0-5.983,0v24.424a18.024,18.024,0,0,0,1.142,6.731s.038.118.137.335c.63,1.3,3.4,5.944,11.258,5.944h.983l1.25-.007h0a2.994,2.994,0,1,0-.031-5.988Z" transform="translate(-71.455 -109.661)" fill="#f2ad19"/>
  <rect id="Retângulo_2" data-name="Retângulo 2" width="186.486" height="68.103" transform="translate(186.486 68.103) rotate(180)" fill="none"/>
</svg>
