<svg id="lupiego_logo" xmlns="http://www.w3.org/2000/svg" width="732.478" height="267.494" viewBox="0 0 732.478 267.494">
  <path id="Caminho_1" data-name="Caminho 1" d="M256.632,149.47a11.745,11.745,0,0,0-11.751,11.751v70.73a54.18,54.18,0,0,1-25.9,6.88c-13.915,0-22.878-8.346-22.878-24.656V161.221a11.713,11.713,0,1,0-23.426,0v56.2c0,13.915,2.632,24.119,9.973,31.466,6.724,6.493,15.924,9.973,28.136,9.973a72.5,72.5,0,0,0,34.479-8.813,9.834,9.834,0,0,0,1,2.47,10.779,10.779,0,0,0,3.786,4.329,11.753,11.753,0,0,0,18.324-9.737V161.221A11.745,11.745,0,0,0,256.632,149.47Z" transform="translate(-80.001 -69.401)" fill="#fff"/>
  <path id="Caminho_2" data-name="Caminho 2" d="M446.462,145.73a55.775,55.775,0,0,0-27.518,6.982s-1.16.7-2.009,1.16h0a11.659,11.659,0,0,0-10.36-6.106h-.081a11.278,11.278,0,0,0-6.412,2.009,10.391,10.391,0,0,0-1.778,1.471,11.767,11.767,0,0,0-3.4,8.2V282.093a11.713,11.713,0,1,0,23.426,0V250.407c7.728,4.253,17.776,6.729,28.6,6.729,26.283,0,50.789-17.551,50.789-55.741C497.713,163.431,472.439,145.73,446.462,145.73Zm-5.1,91.218c-8.5,0-16.466-1.611-23.19-5.338V171.4a47.574,47.574,0,0,1,22.8-5.489c17.782,0,32.7,11.208,32.7,35.478S459.529,236.948,441.36,236.948Z" transform="translate(-182.878 -67.67)" fill="#fff"/>
  <path id="Caminho_3" data-name="Caminho 3" d="M630.355,149.48a11.735,11.735,0,0,0-11.735,11.735v83.871a11.735,11.735,0,0,0,23.469,0V161.215A11.735,11.735,0,0,0,630.355,149.48Z" transform="translate(-286.449 -69.406)" fill="#fff"/>
  <path id="Caminho_4" data-name="Caminho 4" d="M963.919,227.387l-27.137-1.429c-14.9-.806-16.74-4.076-16.74-8.775,0-2.857,1.429-5.714,4.082-8.593a57.78,57.78,0,0,0,20.408,3.475c26.315,0,45.51-15.51,45.51-37.551a34.265,34.265,0,0,0-8.98-23.464c3.985-2.868,7.658-5.274,11.729-7.734a8.84,8.84,0,0,0,2.589-12.841h0a8.808,8.808,0,0,0-12.61-1.611A84.49,84.49,0,0,0,969.451,142.5a55.952,55.952,0,0,0-24.9-5.51c-26.525,0-45.5,15.306-45.5,37.551A34.089,34.089,0,0,0,911.5,201.271c-7.551,5.72-11.224,13.061-11.224,20a19.872,19.872,0,0,0,5.714,14.286c-9.388,6.122-14.9,14.9-14.9,25.918,0,15.3,13.061,25.709,51.428,25.709,40.2,0,57.744-13.469,57.744-33.26C1000.24,239.025,987.8,228.617,963.919,227.387Zm-19.388-73.254c14.286,0,23.469,7.75,23.469,20.408s-9.184,20.408-23.469,20.408c-14.5,0-23.464-7.75-23.464-20.408s8.979-20.4,23.464-20.4ZM942.5,269.626c-21.428,0-29.387-4.688-29.387-12.647a16.875,16.875,0,0,1,6.53-13.469,50.594,50.594,0,0,0,10.408,1.611l29.382,1.837c13.673.816,18.163,4.076,18.163,9.8,0,7.368-6.734,12.878-35.1,12.878Z" transform="translate(-412.588 -58.957)" fill="#fff"/>
  <path id="Caminho_5" data-name="Caminho 5" d="M1149.967,145.68c-30.2,0-54.886,21.836-54.886,55.714s24.7,55.708,54.886,55.708,54.9-21.837,54.9-55.708S1180.17,145.68,1149.967,145.68Zm0,91.218c-18.157,0-30.811-13.061-30.811-35.5s12.653-35.5,30.811-35.5,30.816,13.056,30.816,35.5S1168.13,236.9,1149.967,236.9Z" transform="translate(-507.025 -67.647)" fill="#fff"/>
  <path id="Caminho_6" data-name="Caminho 6" d="M747.423,145.73c-26.745,0-52.873,20.408-52.873,55.655,0,35.714,25.123,55.741,56.122,55.741a97.718,97.718,0,0,0,30.762-4.565,9.538,9.538,0,0,0,6.445-8.963,8.86,8.86,0,0,0-.462-2.787,9.42,9.42,0,0,0-11.369-6.106,84.857,84.857,0,0,1-21.643,3.008c-19.167,0-32.465-9.742-35.558-27.927h67.668a10.344,10.344,0,0,0,10.317-10.252v-.387C796.831,166.138,776.047,145.73,747.423,145.73Zm-28.6,46.691c2.685-18.324,13.528-27.524,28.6-27.524s24.892,10.2,25.51,27.524Z" transform="translate(-321.6 -67.67)" fill="#fff"/>
  <circle id="Elipse_1" data-name="Elipse 1" cx="11.735" cy="11.735" r="11.735" transform="translate(631.212 122.013)" fill="#fff"/>
  <circle id="Elipse_4" data-name="Elipse 4" cx="11.735" cy="11.735" r="11.735" transform="translate(332.212 83.013)" fill="#fff"/>
  <path id="Caminho_7" data-name="Caminho 7" d="M140.668,262.21h-10.66c-12.578,0-18.485-6.584-21.267-12.492a9.238,9.238,0,0,1-.537-1.187c-.048-.124-.1-.247-.15-.376-1.611-4.968-1.8-14.457-1.8-14.457V138.721a11.749,11.749,0,1,0-23.5,0l0,95.933c0,11.058,1.778,19.635,4.484,26.439,0,0,.15.462.537,1.316,2.476,5.1,13.373,23.346,44.221,23.346h3.861l4.909-.027h0a11.76,11.76,0,1,0-.124-23.52Z" transform="translate(-38.37 -58.985)" fill="#fff"/>
  <rect id="Retângulo_2" data-name="Retângulo 2" width="732.478" height="267.494" transform="translate(732.478 267.494) rotate(180)" fill="none"/>
</svg>
